{"title":"Radio Disney Music Awards 2014-x264 720p-GHOST-","uid":10126035,"size":873072842,"categoryP":"video","categoryS":"hd___tv_shows","magnet":"?xt=urn:btih:f7e839d45ea902296c12340bcb9d4e74a410ff5f&amp;dn=Radio+Disney+Music+Awards+2014-x264+720p-GHOST-&amp;tr=udp%3A%2F%2Ftracker.openbittorrent.com%3A80&amp;tr=udp%3A%2F%2Fopen.demonii.com%3A1337&amp;tr=udp%3A%2F%2Ftracker.coppersurfer.tk%3A6969&amp;tr=udp%3A%2F%2Fexodus.desync.com%3A6969","seeders":1,"leechers":0,"uploader":"---GHOST---","files":6,"time":1399763888,"description":"Radio Disney Music Awards 2014-x264 720p-GHOST-\n\n &lt;a href=&quot;\thttp://bayimg.com/FAOMOaafB&quot; rel=&quot;nofollow&quot; target=&quot;_NEW&quot;&gt;\thttp://bayimg.com/FAOMOaafB&lt;/a&gt;\n &lt;a href=&quot;\thttp://bayimg.com/fAoMpAaFb&quot; rel=&quot;nofollow&quot; target=&quot;_NEW&quot;&gt;\thttp://bayimg.com/fAoMpAaFb&lt;/a&gt;\n &lt;a href=&quot;\thttp://bayimg.com/GaoMAAAFb&quot; rel=&quot;nofollow&quot; target=&quot;_NEW&quot;&gt;\thttp://bayimg.com/GaoMAAAFb&lt;/a&gt;\n &lt;a href=&quot;\thttp://bayimg.com/gAOmbAAFb&quot; rel=&quot;nofollow&quot; target=&quot;_NEW&quot;&gt;\thttp://bayimg.com/gAOmbAAFb&lt;/a&gt;\n\n======================================================================================\n\nComplete name                    : Radio Disney Music Awards 2014-x264 720p-GHOST-.mp4\nFormat                           : MPEG-4\nFormat profile                   : Base Media\nCodec ID                         : isom\nFile size                        : 832 MiB\nDuration                         : 1h 17mn\nOverall bit rate mode            : Variable\nOverall bit rate                 : 1 501 Kbps\nWriting application              : Lavf54.29.105\n\nVideo\nID                               : 1\nFormat                           : AVC\nFormat/Info                      : Advanced Video Codec\nFormat profile                   : &lt;a class=&quot;__cf_email__&quot; href=&quot;/cdn-cgi/l/email-protection&quot; data-cfemail=&quot;733e121a1d333f405d42&quot;&gt;[email&amp;#160;protected]&lt;/a&gt;&lt;script cf-hash='f9e31' type=&quot;text/javascript&quot;&gt;\n/* &lt;![CDATA[ */!function(){try{var t=&quot;currentScript&quot;in document?document.currentScript:function(){for(var t=document.getElementsByTagName(&quot;script&quot;),e=t.length;e--;)if(t[e].getAttribute(&quot;cf-hash&quot;))return t[e]}();if(t&amp;&amp;t.previousSibling){var e,r,n,i,c=t.previousSibling,a=c.getAttribute(&quot;data-cfemail&quot;);if(a){for(e=&quot;&quot;,r=parseInt(a.substr(0,2),16),n=2;a.length-n;n+=2)i=parseInt(a.substr(n,2),16)^r,e+=String.fromCharCode(i);e=document.createTextNode(e),c.parentNode.replaceChild(e,c)}}}catch(u){}}();/* ]]&gt; */&lt;/script&gt;\nFormat settings, CABAC           : Yes\nFormat settings, ReFrames        : 4 frames\nCodec ID                         : avc1\nCodec ID/Info                    : Advanced Video Coding\nDuration                         : 1h 17mn\nSource duration                  : 1h 17mn\nBit rate                         : 1 336 Kbps\nNominal bit rate                 : 1 404 Kbps\nWidth                            : 1 280 pixels\nHeight                           : 720 pixels\nDisplay aspect ratio             : 16:9\nFrame rate mode                  : Constant\nFrame rate                       : 29.970 fps\nColor space                      : YUV\nChroma subsampling               : 4:2:0\nBit depth                        : 8 bits\nScan type                        : Progressive\nBits/(Pixel*Frame)               : 0.048\nStream size                      : 741 MiB (89%)\nSource stream size               : 777 MiB (93%)\nWriting library                  : x264 core 125 r2208 d9d2288\nEncoding settings                : cabac=1 / ref=1 / deblock=1:0:0 \n/ analyse=0x1:0x131 / me=umh / subme=7 / psy=1 / psy_rd=1.00:0.00 / mixed_ref=0 \n/ me_range=16 / chroma_me=1 / trellis=1 / 8x8dct=0 / cqm=0 / deadzone=21,11 \n/ fast_pskip=1 / chroma_qp_offset=-2 / threads=12 / lookahead_threads=2 \n/ sliced_threads=0 / nr=0 / decimate=1 / interlaced=0 / bluray_compat=0 \n/ constrained_intra=0 / bframes=3 / b_pyramid=2 / b_adapt=2 / b_bias=0 / direct=3 \n/ weightb=1 / open_gop=0 / weightp=2 / keyint=179 / keyint_min=90 / scenecut=40 \n/ intra_refresh=0 / rc_lookahead=60 / rc=2pass / mbtree=1 / bitrate=1404 / ratetol=1.0 \n/ qcomp=0.60 / qpmin=0 / qpmax=69 / qpstep=4 / cplxblur=1.0 / qblur=0.5 \n/ vbv_maxrate=1825 / vbv_bufsize=1825 / nal_hrd=none / ip_ratio=1.40 / aq=1:1.00\n\nLanguage                         : English\nTagged date                      : UTC 2014-05-03 02:06:35\n\nAudio\nID                               : 2\nFormat                           : AAC\nFormat/Info                      : Advanced Audio Codec\nFormat profile                   : LC\nCodec ID                         : 40\nDuration                         : 1h 17mn\nSource duration                  : 1h 17mn\nBit rate mode                    : Variable\nBit rate                         : 96.0 Kbps\nMaximum bit rate                 : 1 825 Kbps\nChannel(s)                       : 2 channels\nChannel positions                : Front: L R\nSampling rate                    : 44.1 KHz\nCompression mode                 : Lossy\nStream size                      : 53.2 MiB (6%)\nSource stream size               : 53.2 MiB (6%)\nTagged date                      : UTC 2014-05-03 02:06:35\n\n======================================================================================","torrent":{"xt":"urn:btih:f7e839d45ea902296c12340bcb9d4e74a410ff5f","amp;dn":"Radio+Disney+Music+Awards+2014-x264+720p-GHOST-","amp;tr":["udp%3A%2F%2Ftracker.openbittorrent.com%3A80","udp%3A%2F%2Fopen.demonii.com%3A1337","udp%3A%2F%2Ftracker.coppersurfer.tk%3A6969","udp%3A%2F%2Fexodus.desync.com%3A6969"],"infoHash":"f7e839d45ea902296c12340bcb9d4e74a410ff5f","infoHashBuffer":{"type":"Buffer","data":[247,232,57,212,94,169,2,41,108,18,52,11,203,157,78,116,164,16,255,95]},"announce":[],"urlList":[]}}